<svg xmlns="http://www.w3.org/2000/svg" viewBox="0 0 512 512">
  <defs>
    <linearGradient id="g" x1="72" y1="56" x2="444" y2="456" gradientUnits="userSpaceOnUse">
      <stop stop-color="#7DD3FC"/>
      <stop offset=".55" stop-color="#4F8CFF"/>
      <stop offset="1" stop-color="#0EA5E9"/>
    </linearGradient>
    <filter id="s" x="-20%" y="-20%" width="140%" height="140%">
      <feDropShadow dx="0" dy="18" stdDeviation="18" flood-color="#000" flood-opacity=".35"/>
    </filter>
  </defs>
  <rect width="512" height="512" rx="112" fill="#050913"/>
  <path d="M132 150c0-31 25-56 56-56h136c31 0 56 25 56 56v85c0 31-25 56-56 56h-48l-86 76v-76h-2c-31 0-56-25-56-56v-85Z" fill="url(#g)" filter="url(#s)"/>
  <path d="M190 165h130M190 211h92" stroke="#06101D" stroke-width="28" stroke-linecap="round"/>
  <path d="M329 336c27 0 49 22 49 49s-22 49-49 49-49-22-49-49 22-49 49-49Z" fill="#38BDF8"/>
  <path d="m312 386 13 13 28-34" fill="none" stroke="#06101D" stroke-width="16" stroke-linecap="round" stroke-linejoin="round"/>
</svg>
